<?xml version="1.0" encoding="utf-8"?>
<!-- Generator: Adobe Illustrator 26.2.1, SVG Export Plug-In . SVG Version: 6.00 Build 0)  -->
<svg version="1.1"
	 id="svg1222" sodipodi:docname="Old_Bungie_Logo.svg" xmlns:cc="http://creativecommons.org/ns#" xmlns:dc="http://purl.org/dc/elements/1.1/" xmlns:inkscape="http://www.inkscape.org/namespaces/inkscape" xmlns:rdf="http://www.w3.org/1999/02/22-rdf-syntax-ns#" xmlns:sodipodi="http://sodipodi.sourceforge.net/DTD/sodipodi-0.dtd" xmlns:svg="http://www.w3.org/2000/svg"
	 xmlns="http://www.w3.org/2000/svg" xmlns:xlink="http://www.w3.org/1999/xlink" x="0px" y="0px" viewBox="0 0 497.4 196.6"
	 style="enable-background:new 0 0 497.4 196.6;" xml:space="preserve">
<style type="text/css">
	.st0{clip-path:url(#SVGID_00000144322067143809135670000017758807801445452170_);}
	.st1{fill:#9B9B9B;}
	.st2{fill-rule:evenodd;clip-rule:evenodd;fill:#8791AA;}
	.st3{fill:#8791AA;}
	.st4{fill:#094874;}
</style>
<sodipodi:namedview  bordercolor="#666666" borderopacity="1.0" id="base" inkscape:current-layer="layer1" inkscape:cx="333.42519" inkscape:cy="66.397253" inkscape:document-rotation="0" inkscape:document-units="mm" inkscape:pagecheckerboard="true" inkscape:pageopacity="0.0" inkscape:pageshadow="2" inkscape:window-height="847" inkscape:window-maximized="1" inkscape:window-width="1440" inkscape:window-x="0" inkscape:window-y="25" inkscape:zoom="0.7" pagecolor="#ffffff" showgrid="false">
	</sodipodi:namedview>
<g id="layer1" transform="translate(-68.730036,-132.60358)" inkscape:groupmode="layer" inkscape:label="Layer 1">
	<g id="g736" transform="matrix(0,-3.5279388,-3.5277549,0,1533.8243,345.15556)">
		<g>
			<defs>
				<rect id="SVGID_1_" x="-227" y="243.5" width="518.7" height="196.9"/>
			</defs>
			<clipPath id="SVGID_00000063607389807595949860000011917713029453478537_">
				<use xlink:href="#SVGID_1_"  style="overflow:visible;"/>
			</clipPath>
			<g id="g738" style="clip-path:url(#SVGID_00000063607389807595949860000011917713029453478537_);">
				<path id="path744" class="st1" d="M47.6,308.4c15.4,25.1,9,78.1-43.1,90c50.6-9.8,66.8-60.7,48.4-95.9
					C52.9,302.6,52.6,307.5,47.6,308.4"/>
			</g>
		</g>
	</g>
	<path id="path746" class="st2" d="M150.3,249.2c0-10.8-8.4-20.1-18.2-21.7c9.5-2.1,16.3-8.9,16.3-19.7c0-22.6-17-24-36.8-24H68.7
		v90.8h42.9c16.8,0,22.7-1.4,27-4C142.8,268,150.3,261,150.3,249.2L150.3,249.2z M136,207.7c0,16.1-17.4,15.8-24.3,15.8H80v-29.6
		h31.6C124.2,193.9,136,194,136,207.7L136,207.7z M137.7,249.2c0,15.8-13.4,16.3-26,16.3H80v-33h31.6
		C121.4,232.5,137.7,235,137.7,249.2"/>
	<path id="path748" class="st3" d="M241.2,241.4v-57.6h-11.3v57.6c0,20.7-15.4,26.1-29.6,26.1c-14.2,0-29.5-5.4-29.5-26.1v-57.6
		h-11.3v57.6c0,29.3,20.3,35.2,40.8,35.2C220.7,276.5,241.2,270.6,241.2,241.4"/>
	<path id="path750" class="st3" d="M334.9,274.5v-90.8h-11.4v82.9l-51.1-82.9h-19.2v90.8h11.3V191l51.7,83.5H334.9"/>
	<path id="path752" class="st3" d="M440,261.2v-32.1h-34.3v10.3h21.8v17.1c0,0-10.2,9.9-31.5,9.9c-22.2,0-40.9-14.1-40.9-37.3
		c0-31.8,24.3-37.7,38.8-37.7c12.5,0,27.9,4.7,31,20.7h13.6c0-9.5-11-31-44.6-31c-30.5,0-51.2,16.2-51.2,48
		c0,27.2,18.7,47.5,53.4,47.5C426.6,276.5,440,261.2,440,261.2"/>
	<path id="path754" class="st3" d="M566.1,274.5v-10.2h-59.3v-31.6h57.9v-10.3h-57.9V194h58.4v-10.3h-69.7v90.8L566.1,274.5"/>
	<path id="path756" class="st2" d="M476.1,191.2v-8.8h-11.4v8.8H476.1z M476.1,273.1v-63.5h-11.4v63.5H476.1z"/>
	<path id="path758" d="M461.4,192.9v-13.9h16.6v13.9H461.4z"/>
	<path id="path760" class="st4" d="M450.3,183.6c0-10.4,8.4-18.8,18.8-18.8c10.4,0,18.8,8.4,18.8,18.8c0,10.4-8.4,18.8-18.8,18.8
		C458.7,202.5,450.3,194,450.3,183.6"/>
</g>
</svg>
