<svg xmlns="http://www.w3.org/2000/svg" xmlns:xlink="http://www.w3.org/1999/xlink" viewBox="0 0 771.57 84.05"><defs><style>.cls-1{filter:url(#filter);}.cls-2{fill:url(#linear-gradient);}.cls-3{fill:url(#linear-gradient-2);}.cls-4{fill:url(#linear-gradient-3);}.cls-5{fill:url(#linear-gradient-4);}.cls-6{fill:url(#linear-gradient-5);}</style><filter id="filter"><feOffset input="SourceAlpha"/><feGaussianBlur stdDeviation="5" result="blur"/><feFlood flood-color="#2ca2d0"/><feComposite operator="in" in2="blur"/><feComposite in="SourceGraphic"/></filter><linearGradient id="linear-gradient" x1="66.97" x2="66.97" y2="83.58" gradientUnits="userSpaceOnUse"><stop offset="0" stop-color="#c4e3f0"/><stop offset="1" stop-color="#759fc7"/></linearGradient><linearGradient id="linear-gradient-2" x1="225.97" x2="225.97" y2="83.58" xlink:href="#linear-gradient"/><linearGradient id="linear-gradient-3" x1="376.8" y1="0.48" x2="376.8" y2="84.05" xlink:href="#linear-gradient"/><linearGradient id="linear-gradient-4" x1="521.8" x2="521.8" y2="83.58" xlink:href="#linear-gradient"/><linearGradient id="linear-gradient-5" x1="704.36" x2="704.36" y2="83.87" xlink:href="#linear-gradient"/></defs><g id="Layer_2" data-name="Layer 2"><g id="Layer_1-2" data-name="Layer 1"><g class="cls-1"><path class="cls-2" d="M0,0H35.27V35.43h65.47V9.69a64.38,64.38,0,0,1,9.85.64,25.26,25.26,0,0,1,6.67,1.9,18.92,18.92,0,0,1,4.69,3.1,28.94,28.94,0,0,1,3.73,4.21V72.3H134V76h-8.27v3.5H109.63V76h-8.89V43.54h-57V66.73A5.21,5.21,0,0,0,45,69.83a15.29,15.29,0,0,0,3.09,3,21.08,21.08,0,0,0,3.74,2.23,8.23,8.23,0,0,0,3.34.87h5.08V80.4H54.66c-1.8,0-2.84.37-3.1,1.11a6,6,0,0,0-.4,2.07H23.36V79.45H3V76h8.42a3.21,3.21,0,0,0,1.43-.4c.53-.26.79-.87.79-1.82v-61a6.59,6.59,0,0,0-2.22-5.16,6.35,6.35,0,0,0-4-2H0Z"/><path class="cls-3" d="M142.87,76h9.69L181,44h9.69l4.13-5.72h32.89c1.28-.32,1.43-.84.48-1.59L213.1,20.5l-5.25,5.56h-10.8l11.28-12.4,1.59.64L223,0l71.34,76h14.78V80.4H290.16l.32,3.18H271.41l-.64-.8A19.74,19.74,0,0,0,269.11,81a4.42,4.42,0,0,0-2.79-.63H256.16V76h7.62L240,49.42H204.52L185.77,70.87c-1.81,2.54-1.54,4.23.79,5.08h14v3.5H172.9L170,83.58H142.87Z"/><path class="cls-4" d="M376.24,5.08v5.09h-7.15a7,7,0,0,0-4.69,2.46,9.13,9.13,0,0,0-2.14,5V66.89h65.3a5.67,5.67,0,0,0,2.31-.63,18.66,18.66,0,0,0,2.62-1.51,14.83,14.83,0,0,0,2.22-1.83,2.63,2.63,0,0,0,1-1.75l.16-3.49h4.6V79h-9.37l-4.29,5.08H341.44V78H316.18V72.77h10.65c.95,0,2-.66,3-2a6.18,6.18,0,0,0,1.58-3.74V10.17c.11-.74-.37-1.61-1.43-2.62A4.66,4.66,0,0,0,326.83,6H313.16V.48h38.3v4.6Z"/><path class="cls-5" d="M512.5,0A143.54,143.54,0,0,1,543,3.1a106.28,106.28,0,0,1,25.1,8.5,57.9,57.9,0,0,1,17.4,12.71q6.6,7.31,7.39,15.57H608V44H592.9q-.79,8.27-7.47,15.49A58.69,58.69,0,0,1,568,72.06a109.35,109.35,0,0,1-25.11,8.42,143.41,143.41,0,0,1-30.35,3.1h-3l-.79-4.77a115.72,115.72,0,0,1-19.78-2.22,101.43,101.43,0,0,1-17.24-5.09l5.56-6.2a86.43,86.43,0,0,0,16,4.14,111.86,111.86,0,0,0,18.19,1.43,109.22,109.22,0,0,0,22.88-2.31A76.15,76.15,0,0,0,553,62.21a40.57,40.57,0,0,0,12.63-9.54A17.71,17.71,0,0,0,570.34,41a17.45,17.45,0,0,0-4.69-11.6A41.17,41.17,0,0,0,553,19.94a78.24,78.24,0,0,0-18.75-6.43,105.91,105.91,0,0,0-22.88-2.39,104.52,104.52,0,0,0-22.88,2.39,79.91,79.91,0,0,0-18.67,6.43,40,40,0,0,0-12.63,9.45A17.55,17.55,0,0,0,452.6,41v1.43a7,7,0,0,0,.16,1.43H439.57l-4-9.37h9.85a26.54,26.54,0,0,1,5.24-9,45.2,45.2,0,0,1,9-7.78,67.91,67.91,0,0,1,12.08-6.36,89.35,89.35,0,0,1,14.69-4.53l-.79-4.45q6.36-1.11,13-1.74T512.5,0ZM526,40.68h9.21v3H526c-.64,1.69-2.17,3.09-4.61,4.21a21,21,0,0,1-8.74,1.66,19.76,19.76,0,0,1-9.53-2.14q-4-2.15-4-5.17t4-5.16A19.76,19.76,0,0,1,512.66,35a21.57,21.57,0,0,1,8.58,1.58C523.68,37.61,525.27,39,526,40.68Z"/><path class="cls-6" d="M758.06,9.53h-.48a50.81,50.81,0,0,0-7.63.56,17.47,17.47,0,0,0-7.78,3.73l-14,14.46q12.7.33,21.13,3.1a43.72,43.72,0,0,1,13.42,6.75,22.51,22.51,0,0,1,7,8.66,20.61,20.61,0,0,1,1.82,8.82c-.1,2.44-1.19,5.06-3.25,7.87a33.87,33.87,0,0,1-9.22,8.1,72.38,72.38,0,0,1-14.94,7A94.25,94.25,0,0,1,724,83a144.94,144.94,0,0,1-25.26.56,156.11,156.11,0,0,1-30-4.93l-1.27-3.81a118.62,118.62,0,0,1-15.73-7.39,119.29,119.29,0,0,1-14.62-9.77l5.24-6.2a89.19,89.19,0,0,0,21.45,11.44,113.86,113.86,0,0,0,22.41,5.8,120,120,0,0,0,21.45,1.35,119.71,119.71,0,0,0,18.67-1.91,73.38,73.38,0,0,0,14.14-4c3.87-1.59,6.43-3.18,7.71-4.76a13.51,13.51,0,0,0,2.38-7q.31-4.12-3.81-7.94t-14-6.36q-9.85-2.54-28.12-2.38V30.51h4l16.05-16.37H677.5a12,12,0,0,0-6.2,1.51,5,5,0,0,0-2.54,4.53h-4.13V6.36h8.58L678.45,0h60.86V4h18.75Z"/></g></g></g></svg>